<svg width="68.042" height="50.261" viewBox="0 0 68.042 50.261" xmlns="http://www.w3.org/2000/svg"><g id="svgGroup" stroke-linecap="round" fill-rule="evenodd" font-size="9pt" stroke="#ffffff" stroke-width="0.25mm" fill="#000000" style="stroke:#ffffff;stroke-width:0.25mm;fill:#000000"><path d="M 47.881 16.101 L 34.651 16.101 Q 33.321 13.651 30.836 12.356 A 11.219 11.219 0 0 0 27.482 11.258 A 15.067 15.067 0 0 0 24.991 11.061 A 14.354 14.354 0 0 0 20.804 11.643 A 11.289 11.289 0 0 0 15.681 14.876 A 12.913 12.913 0 0 0 12.613 20.898 A 18.961 18.961 0 0 0 12.181 25.061 A 20.174 20.174 0 0 0 12.615 29.377 Q 13.23 32.186 14.717 34.29 A 11.8 11.8 0 0 0 15.856 35.666 A 12.115 12.115 0 0 0 22.216 39.108 A 17.948 17.948 0 0 0 25.971 39.481 A 14.417 14.417 0 0 0 29.568 39.052 A 11.107 11.107 0 0 0 33.426 37.241 A 11.767 11.767 0 0 0 36.865 33.178 A 15.77 15.77 0 0 0 37.871 30.801 L 22.681 30.801 L 22.681 21.981 L 48.721 21.981 L 48.721 33.111 A 23.265 23.265 0 0 1 44.692 40.835 A 26.839 26.839 0 0 1 44.206 41.441 A 23.294 23.294 0 0 1 37.612 46.89 A 27.595 27.595 0 0 1 36.121 47.671 A 23.683 23.683 0 0 1 28.426 49.862 A 29.37 29.37 0 0 1 25.061 50.051 A 28.424 28.424 0 0 1 17.419 49.057 A 24.234 24.234 0 0 1 12.076 46.866 Q 6.371 43.681 3.186 38.011 A 24.928 24.928 0 0 1 0.164 28.277 A 30.977 30.977 0 0 1 0.001 25.061 A 28.424 28.424 0 0 1 0.994 17.419 A 24.234 24.234 0 0 1 3.186 12.076 Q 6.371 6.371 12.041 3.186 A 24.928 24.928 0 0 1 21.775 0.164 A 30.977 30.977 0 0 1 24.991 0.001 A 30.285 30.285 0 0 1 31.94 0.761 A 22.576 22.576 0 0 1 39.866 4.271 Q 45.921 8.541 47.881 16.101 Z M 60.971 50.261 Q 57.821 50.261 55.826 48.406 A 5.988 5.988 0 0 1 53.835 44.075 A 7.308 7.308 0 0 1 53.831 43.821 Q 53.831 41.021 55.826 39.131 A 6.806 6.806 0 0 1 59.648 37.331 A 9.36 9.36 0 0 1 60.971 37.241 A 8.235 8.235 0 0 1 63.376 37.577 A 6.639 6.639 0 0 1 66.046 39.131 A 6.175 6.175 0 0 1 68.038 43.625 A 7.727 7.727 0 0 1 68.041 43.821 A 5.99 5.99 0 0 1 66.228 48.23 A 7.263 7.263 0 0 1 66.046 48.406 A 6.861 6.861 0 0 1 62.09 50.195 A 9.299 9.299 0 0 1 60.971 50.261 Z" vector-effect="non-scaling-stroke"/></g></svg>